<?xml version="1.0" encoding="UTF-8"?>
<svg id="Calque_1" data-name="Calque 1" xmlns="http://www.w3.org/2000/svg" viewBox="0 0 314.4 138.82">
  <polyline points="154.03 34.51 154.03 1 1 1 1 137.82 154.03 137.82 154.03 99.06" style="fill: none; stroke: #e30613; stroke-miterlimit: 10; stroke-width: 2px;"/>
  <g>
    <path d="m46.99,39.44h2.67c7.03,0,13.04,1.86,18.04,5.57v8.57l-1.04,1.04c-3.51-8.09-9.54-12.13-18.07-12.13-10.81,0-17.18,7.74-19.11,23.23v.52c0,8.81,3.72,16.9,11.17,24.27v1.52h-.56c-6.09,0-11.91-4.89-17.48-14.66-1.41-2.3-2.47-6.35-3.19-12.13,0-6.56,3.19-12.96,9.57-19.22,5.49-4.38,11.49-6.57,18-6.57Zm23.9,24.79v.48c-2.13,1.88-3.19,3.91-3.19,6.09v20.22h-1.6c0-.69-2.12-2.72-6.35-6.09v-12.62c0-3.74-1.24-6.27-3.71-7.61l.52-.48h14.32Z" style="fill: #e30613; stroke-width: 0px;"/>
    <path d="m74.71,40.29h12.95v.48c-.92,1.41-1.37,2.73-1.37,3.97l13.4,34.07h.93c1.16-2.97,2.09-4.45,2.78-4.45h.93v.52c-3.46,12.17-5.63,18.26-6.49,18.26l-18.48-46.91c-1.86-3.29-3.4-4.94-4.64-4.94v-1Zm16.66,0h11.54l.93,1-.93,1.48v.96c0,1.31,4.17,12.67,12.51,34.07h.93l11.1-34.07-1.41-3.45h8.79v.48c-2.42.74-6.12,8.98-11.1,24.71-5.54,17.57-8.62,26.62-9.24,27.16-.84,0-4.7-9.23-11.58-27.68-5.25-14.03-9.09-22.09-11.54-24.2v-.48Z" style="fill: #e30613; stroke-width: 0px;"/>
    <path d="m161.99,54.69c0-3.66-1.06-6.69-3.19-9.09-2.13-2.4-4.43-3.6-6.9-3.6-4.21,0-7.61,1.62-10.21,4.86h-.82v-1.82c.96-1.24,2.39-2.52,4.27-3.86,1.88-1.34,4.17-2,6.87-2,4.53,0,8.32,1.5,11.37,4.49,3.06,2.99,4.58,6.67,4.58,11.02,0,6.48-7.76,17.81-23.27,33.99h15.66c3.22,0,5.8-1.39,7.76-4.16h1.82l-3.82,8.61h-26.68l.04-1.86c15.02-16.7,22.53-28.9,22.53-36.59Z" style="fill: #e30613; stroke-width: 0px;"/>
    <path d="m182.68,56.65h33.34v.81c-.54,0-1.48.82-2.81,2.45h-10.44v29.17c0,1.22.8,2.44,2.39,3.65v.42h-11.24v-.81c.83,0,1.64-.68,2.42-2.03v-30.39h-10.85c-1.34-1.63-2.27-2.45-2.81-2.45v-.81Z" style="fill: #e30613; stroke-width: 0px;"/>
    <path d="m233.72,57.06c1.13,1.24,6.34,12.35,15.61,33.31l2.12,1.59v.39l-.84.78h-9.71v-.39l.84-2.37c-.76-3.14-1.46-4.7-2.09-4.7h-5.93l-3.37-.78c.54-1.19,1.1-1.84,1.7-1.95h6.73v-.39l-6.32-14.11h-.42l-8.02,22.32,1.25,1.98-.42.39h-8.02v-.78c2.62,0,6.41-7.71,11.38-23.13,3.21-7.96,5.04-12.01,5.48-12.16Z" style="fill: #e30613; stroke-width: 0px;"/>
    <path d="m256.9,57.48l2.34.39,2.81-.39h4.2v.39c-1.88,1.19-2.81,2.38-2.81,3.56v26.55c0,1.86,1.09,2.78,3.28,2.78h5.15c1.71,0,4.04-1.2,7.01-3.59l.47,1.2c-.71,3.17-1.48,4.76-2.34,4.76h-22.93v-.39c1.24-1.11,1.86-2.17,1.86-3.17v-28.14c0-1.19-.94-2.38-2.81-3.56l.47-.39h3.29Z" style="fill: #e30613; stroke-width: 0px;"/>
    <path d="m282.09,57.68h10.63v.78c-1.58,0-2.37,1.83-2.37,5.48v24.63c0,1.21.79,2.51,2.37,3.92v.39h-9.46l-.39-.39h-.39c1.32-1.76,1.98-3.07,1.98-3.92v-24.63c0-3.66-.79-5.48-2.37-5.48v-.78Zm22.07,0h7.88v.78c-1.71,0-3.02,3-3.95,8.99l-5.9,11.75c.61,0,4.68,6.65,12.22,19.96l-.39.39c-2.19-1.28-7.97-7.15-17.34-17.62l-4.34.81-.39-.39v-.81c4.69-2.5,7.45-5.11,8.27-7.82l4.73-13.69-.78-2.34Z" style="fill: #e30613; stroke-width: 0px;"/>
  </g>
</svg>